<svg role="img" viewBox="-20 -20 140 140" fill="#fff" xmlns="http://www.w3.org/2000/svg"><path d="M12.927 16.371a1.47 1.47 0 0 0 .061 2.027l68.595 68.594c.555.555 1.446.59 2.026.062 10.058-9.152 16.372-22.348 16.372-37.018C99.98 22.402 77.579 0 49.945 0c-14.67 0-27.866 6.313-37.018 16.371M4.353 29.39a1.47 1.47 0 0 0 .309 1.648L68.943 95.32c.434.434 1.09.562 1.648.308a50 50 0 0 0 4.335-2.227c.834-.482.962-1.62.28-2.3L8.882 24.773c-.68-.68-1.818-.553-2.3.281a50 50 0 0 0-2.228 4.334m-3.9 18.407a1.48 1.48 0 0 1-.432-1.14q.2-2.986.74-5.866c.215-1.15 1.62-1.55 2.448-.722l56.703 56.704c.828.827.429 2.233-.722 2.448a50 50 0 0 1-5.865.74 1.48 1.48 0 0 1-1.14-.433zm3.48 13.963c-1.033-1.033-2.7-.143-2.322 1.268C6.221 80.22 19.761 93.76 36.954 98.37c1.41.379 2.3-1.289 1.268-2.322z"/></svg>